<svg width="10" height="6" viewBox="0 0 10 6" fill="none" xmlns="http://www.w3.org/2000/svg">
<path fill-rule="evenodd" clip-rule="evenodd" d="M3.62427 5.82464C3.51175 5.93712 3.35917 6.00031 3.20007 6.00031C3.04097 6.00031 2.88838 5.93712 2.77587 5.82464L0.375867 3.42464C0.263384 3.31212 0.200195 3.15954 0.200195 3.00044C0.200195 2.84134 0.263384 2.68876 0.375867 2.57624L2.77587 0.17624C2.88903 0.066945 3.04059 0.00646813 3.19791 0.00783518C3.35523 0.00920223 3.50571 0.0723037 3.61696 0.183549C3.7282 0.294793 3.7913 0.445281 3.79267 0.602599C3.79404 0.759917 3.73356 0.911478 3.62427 1.02464L2.24847 2.40044H9.20007C9.3592 2.40044 9.51181 2.46365 9.62433 2.57618C9.73685 2.6887 9.80007 2.84131 9.80007 3.00044C9.80007 3.15957 9.73685 3.31218 9.62433 3.4247C9.51181 3.53723 9.3592 3.60044 9.20007 3.60044H2.24847L3.62427 4.97624C3.73675 5.08876 3.79994 5.24134 3.79994 5.40044C3.79994 5.55954 3.73675 5.71212 3.62427 5.82464Z" fill="#616D8D"/>
</svg>
