<svg width="9" height="14" viewBox="0 0 9 14" fill="none" xmlns="http://www.w3.org/2000/svg">
<path fill-rule="evenodd" clip-rule="evenodd" d="M8.73567 8.93483C8.90461 9.09306 8.99951 9.30764 8.99951 9.53137C8.99951 9.75511 8.90461 9.96968 8.73567 10.1279L5.13117 13.503C4.96218 13.6611 4.73302 13.75 4.49407 13.75C4.25512 13.75 4.02596 13.6611 3.85698 13.503L0.25247 10.1279C0.0883221 9.96878 -0.00250628 9.75564 -0.000453128 9.53441C0.00160003 9.31318 0.0963704 9.10155 0.263447 8.94511C0.430523 8.78867 0.656537 8.69994 0.892809 8.69801C1.12908 8.69609 1.35671 8.78114 1.52666 8.93483L3.59295 10.8696L3.59295 1.09376C3.59295 0.869982 3.68789 0.655368 3.85688 0.497132C4.02587 0.338896 4.25508 0.25 4.49407 0.25C4.73307 0.25 4.96227 0.338896 5.13126 0.497132C5.30026 0.655368 5.3952 0.869982 5.3952 1.09376L5.3952 10.8696L7.46148 8.93483C7.63047 8.77665 7.85963 8.68779 8.09858 8.68779C8.33752 8.68779 8.56669 8.77665 8.73567 8.93483V8.93483Z" fill="#616D8D"/>
</svg>
