<svg width="32" height="32" viewBox="0 0 32 32" fill="none" xmlns="http://www.w3.org/2000/svg">
<path d="M32 16C32 24.8366 24.8366 32 16 32C7.16344 32 0 24.8366 0 16C0 7.16344 7.16344 0 16 0C24.8366 0 32 7.16344 32 16Z" fill="#313E62"/>
<path d="M16 17.125C17.3427 17.125 18.6303 16.5916 19.5797 15.6422C20.5291 14.6928 21.0625 13.4052 21.0625 12.0625C21.0625 10.7198 20.5291 9.43217 19.5797 8.48277C18.6303 7.53337 17.3427 7 16 7C14.6573 7 13.3697 7.53337 12.4203 8.48277C11.4709 9.43217 10.9375 10.7198 10.9375 12.0625C10.9375 13.4052 11.4709 14.6928 12.4203 15.6422C13.3697 16.5916 14.6573 17.125 16 17.125ZM12.6707 18.25C9.53828 18.25 7 20.7883 7 23.9207C7 24.5184 7.48516 25 8.0793 25H23.9207C24.5184 25 25 24.5148 25 23.9207C25 20.7883 22.4617 18.25 19.3293 18.25H12.6707Z" fill="white"/>
</svg>
