<svg width="10" height="6" viewBox="0 0 10 6" fill="none" xmlns="http://www.w3.org/2000/svg">
<path fill-rule="evenodd" clip-rule="evenodd" d="M6.376 0.175672C6.48851 0.0631893 6.6411 0 6.80019 0C6.95929 0 7.11188 0.0631893 7.22439 0.175672L9.6244 2.57567C9.73688 2.68819 9.80007 2.84077 9.80007 2.99987C9.80007 3.15897 9.73688 3.31155 9.6244 3.42407L7.22439 5.82407C7.11123 5.93337 6.95967 5.99384 6.80235 5.99248C6.64504 5.99111 6.49455 5.92801 6.3833 5.81676C6.27206 5.70552 6.20896 5.55503 6.20759 5.39771C6.20622 5.24039 6.2667 5.08883 6.376 4.97567L7.7518 3.59987H0.800195C0.641065 3.59987 0.488453 3.53666 0.375931 3.42414C0.263409 3.31161 0.200195 3.159 0.200195 2.99987C0.200195 2.84074 0.263409 2.68813 0.375931 2.57561C0.488453 2.46309 0.641065 2.39987 0.800195 2.39987H7.7518L6.376 1.02407C6.26351 0.911555 6.20032 0.75897 6.20032 0.599872C6.20032 0.440773 6.26351 0.288189 6.376 0.175672Z" fill="#616D8D"/>
</svg>
